<?xml version="1.0" encoding="UTF-8"?>
<svg xmlns="http://www.w3.org/2000/svg" xmlns:xlink="http://www.w3.org/1999/xlink" fill-opacity="1" color-rendering="auto" color-interpolation="auto" stroke="black" text-rendering="auto" stroke-linecap="square" width="343" stroke-miterlimit="10" stroke-opacity="1" shape-rendering="auto" fill="black" stroke-dasharray="none" font-weight="normal" stroke-width="1" height="225" font-family="'Dialog'" font-style="normal" stroke-linejoin="miter" font-size="12" stroke-dashoffset="0" image-rendering="auto">
  <!--Generated by ySVG-->
  <defs id="genericDefs"/>
  <g>
    <defs id="defs1">
      <clipPath clipPathUnits="userSpaceOnUse" id="clipPath1">
        <path d="M0 0 L343 0 L343 225 L0 225 L0 0 Z"/>
      </clipPath>
      <clipPath clipPathUnits="userSpaceOnUse" id="clipPath2">
        <path d="M391 93 L734 93 L734 318 L391 318 L391 93 Z"/>
      </clipPath>
      <clipPath clipPathUnits="userSpaceOnUse" id="clipPath3">
        <path d="M463 217 L463 242 L502 242 L502 217 Z"/>
      </clipPath>
      <clipPath clipPathUnits="userSpaceOnUse" id="clipPath4">
        <path d="M407 170 L407 195 L446 195 L446 170 Z"/>
      </clipPath>
      <clipPath clipPathUnits="userSpaceOnUse" id="clipPath5">
        <path d="M463 170 L463 195 L502 195 L502 170 Z"/>
      </clipPath>
      <clipPath clipPathUnits="userSpaceOnUse" id="clipPath6">
        <path d="M519 170 L519 195 L558 195 L558 170 Z"/>
      </clipPath>
      <clipPath clipPathUnits="userSpaceOnUse" id="clipPath7">
        <path d="M498 108 L498 144 L578 144 L578 108 Z"/>
      </clipPath>
      <clipPath clipPathUnits="userSpaceOnUse" id="clipPath8">
        <path d="M420 264 L420 300 L478 300 L478 264 Z"/>
      </clipPath>
      <clipPath clipPathUnits="userSpaceOnUse" id="clipPath9">
        <path d="M489 264 L489 300 L547 300 L547 264 Z"/>
      </clipPath>
      <clipPath clipPathUnits="userSpaceOnUse" id="clipPath10">
        <path d="M568 217 L568 242 L607 242 L607 217 Z"/>
      </clipPath>
      <clipPath clipPathUnits="userSpaceOnUse" id="clipPath11">
        <path d="M661 217 L661 242 L719 242 L719 217 Z"/>
      </clipPath>
    </defs>
    <g fill="white" transform="translate(-391,-93)" stroke="white">
      <rect x="391" width="343" height="225" y="93" clip-path="url(#clipPath2)" stroke="none"/>
    </g>
    <g font-size="13" stroke-miterlimit="1.45" font-weight="bold" font-family="sans-serif" transform="matrix(1,0,0,1,-391,-93)" stroke-linecap="butt">
      <text x="469.5" xml:space="preserve" y="235.0698" clip-path="url(#clipPath3)" stroke="none">NXT</text>
      <text x="408.4504" xml:space="preserve" y="188.0698" clip-path="url(#clipPath4)" stroke="none">Motor</text>
      <text x="464.4504" xml:space="preserve" y="188.0698" clip-path="url(#clipPath5)" stroke="none">Motor</text>
      <text x="520.4504" xml:space="preserve" y="188.0698" clip-path="url(#clipPath6)" stroke="none">Motor</text>
      <text x="500.5886" xml:space="preserve" y="126.0698" clip-path="url(#clipPath7)" stroke="none">Competition</text>
      <text x="514.3091" xml:space="preserve" y="141.9961" clip-path="url(#clipPath7)" stroke="none">Cannon</text>
      <text x="429.5032" xml:space="preserve" y="282.0698" clip-path="url(#clipPath8)" stroke="none">Touch</text>
      <text x="426.9641" xml:space="preserve" y="297.9961" clip-path="url(#clipPath8)" stroke="none">Sensor</text>
      <text x="498.5032" xml:space="preserve" y="282.0698" clip-path="url(#clipPath9)" stroke="none">Touch</text>
      <text x="495.9641" xml:space="preserve" y="297.9961" clip-path="url(#clipPath9)" stroke="none">Sensor</text>
      <text x="578.4705" xml:space="preserve" y="235.0698" clip-path="url(#clipPath10)" stroke="none">PC</text>
      <text x="670.135" xml:space="preserve" y="235.0698" clip-path="url(#clipPath11)" stroke="none">Kinect</text>
      <path fill="none" d="M467.5977 216.9927 L441.4099 195.0137" clip-path="url(#clipPath2)"/>
      <path fill="none" d="M482.5 216.9697 L482.5 194.9885" clip-path="url(#clipPath2)"/>
      <path fill="none" d="M497.4023 216.9927 L523.5901 195.0137" clip-path="url(#clipPath2)"/>
      <path fill="none" d="M538.5 170.0027 L538.5 144.005" clip-path="url(#clipPath2)"/>
      <path fill="none" d="M474.5339 241.9841 L460.4953 263.985" clip-path="url(#clipPath2)"/>
      <path fill="none" d="M490.9417 241.9841 L505.8185 263.985" clip-path="url(#clipPath2)"/>
      <path fill="none" d="M502.0081 229.5 L568.0055 229.5" clip-path="url(#clipPath2)"/>
      <path fill="none" d="M606.994 229.5 L661.0209 229.5" clip-path="url(#clipPath2)"/>
    </g>
  </g>
</svg>
